<svg xmlns="http://www.w3.org/2000/svg" width="24" height="20" viewBox="0 0 24 20" fill="none">
  <path d="M20 10.5V15C20 15.2652 19.8946 15.5196 19.7071 15.7071C19.5196 15.8946 19.2652 16 19 16H5C4.73478 16 4.48043 15.8946 4.29289 15.7071C4.10536 15.5196 4 15.2652 4 15V10.5C4 10.2348 4.10536 9.98043 4.29289 9.79289C4.48043 9.60536 4.73478 9.5 5 9.5H19C19.2652 9.5 19.5196 9.60536 19.7071 9.79289C19.8946 9.98043 20 10.2348 20 10.5ZM12 12C12.8284 12 13.5 11.3284 13.5 10.5C13.5 9.67157 12.8284 9 12 9C11.1716 9 10.5 9.67157 10.5 10.5C10.5 11.3284 11.1716 12 12 12ZM17 4C17.5523 4 18 4.44772 18 5C18 5.55228 17.5523 6 17 6C16.4477 6 16 5.55228 16 5C16 4.44772 16.4477 4 17 4ZM7 4C7.55228 4 8 4.44772 8 5C8 5.55228 7.55228 6 7 6C6.44772 6 6 5.55228 6 5C6 4.44772 6.44772 4 7 4Z" fill="white"/>
</svg>
