<svg width="19" height="19" viewBox="0 0 19 19" fill="none" xmlns="http://www.w3.org/2000/svg">
  <path d="M9.5 2.375c2.625 0 2.938.01 3.975.057 2.69.125 3.94 1.396 4.065 4.065.048 1.037.058 1.35.058 3.976 0 2.625-.01 2.938-.058 3.975-.125 2.69-1.396 3.94-4.065 4.065-1.037.048-1.35.058-3.975.058-2.625 0-2.938-.01-3.975-.058-2.69-.125-3.94-1.396-4.065-4.065C2.385 12.813 2.375 12.5 2.375 9.875c0-2.625.01-2.938.058-3.976.125-2.69 1.396-3.94 4.065-4.065C6.563 2.385 6.876 2.375 9.5 2.375zM9.5 0C6.791 0 6.427.011 5.2.057 1.69.195.195 1.69.057 5.2.011 6.427 0 6.791 0 9.5c0 2.709.011 3.073.057 4.3.138 3.51 1.633 5.005 5.143 5.143 1.227.046 1.591.057 4.3.057s3.073-.011 4.3-.057c3.51-.138 5.005-1.633 5.143-5.143.046-1.227.057-1.591.057-4.3s-.011-3.073-.057-4.3c-.138-3.51-1.633-5.005-5.143-5.143C12.573.011 12.209 0 9.5 0zM9.5 4.75a4.75 4.75 0 1 0 0 9.5 4.75 4.75 0 0 0 0-9.5zm0 7.75a3 3 0 1 1 0-6 3 3 0 0 1 0 6zM14.25 4.5a.875.875 0 1 0 0 1.75.875.875 0 0 0 0-1.75z" fill="green"/>
</svg>
