<svg width="19" height="19" viewBox="0 0 19 19" fill="none" xmlns="http://www.w3.org/2000/svg">
  <path d="M9.5 0C4.25329 0 0 4.25329 0 9.5C0 11.9207 0.922656 14.1359 2.43828 15.8564L1.20486 18.3336L3.74736 17.1447C5.30957 18.0887 7.29028 19 9.5 19C14.7467 19 19 14.7467 19 9.5C19 4.25329 14.7467 0 9.5 0ZM9.5 17.3846C7.56124 17.3846 5.7413 16.773 4.24162 15.7226L2.48755 16.4702L3.23283 14.7366C1.96356 13.2128 1.23077 11.2064 1.23077 9.5C1.23077 5.22997 5.22997 1.23077 9.5 1.23077C13.7701 1.23077 17.7692 5.22997 17.7692 9.5C17.7692 13.7701 13.7701 17.3846 9.5 17.3846Z" fill="green"/>
  <path d="M13.5863 11.9279C13.289 11.7335 12.8242 11.4643 12.4306 11.6332C12.0465 11.7984 11.6467 12.1058 11.1944 12.0163C10.7183 11.9224 9.93341 11.4363 9.40049 10.9034C8.86757 10.3705 8.38148 9.58561 8.28758 9.10952C8.19807 8.65726 8.50549 8.25741 8.67068 7.87334C8.83958 7.47978 8.57043 7.01499 8.37603 6.71767C8.18163 6.42035 7.89756 5.99829 7.60024 6.00126C7.30389 6.00423 7.02574 6.01215 6.79977 6.249C6.5738 6.48585 6.13415 7.03499 6.12426 8.03891C6.11437 9.04283 6.66844 10.3655 7.73176 11.4288C8.79507 12.4921 10.1177 13.0462 11.1216 13.0363C12.1256 13.0264 12.6747 12.5868 12.9116 12.3608C13.1485 12.1348 13.1564 11.8566 13.1593 11.5602C13.1623 11.2629 13.7403 12.1225 13.5863 11.9279Z" fill="green"/>
</svg>
